<svg xmlns:xlink="http://www.w3.org/1999/xlink" viewBox="0 0 280 74" fill="none" xmlns="http://www.w3.org/2000/svg"><path fill-rule="evenodd" clip-rule="evenodd" d="M60.7517 0.000344554C59.2769 0.0279246 57.8435 0.470246 56.6314 1.2718C55.4193 2.07335 54.4825 3.19842 53.9386 4.50582C53.3946 5.81322 53.2677 7.24468 53.5739 8.62059C53.88 9.99649 54.6055 11.2555 55.6593 12.2397C56.7131 13.2239 58.0483 13.8893 59.4973 14.1525C60.9463 14.4157 62.4445 14.265 63.804 13.7192C65.1635 13.1734 66.3236 12.2568 67.1388 11.0846C67.954 9.91239 68.3879 8.53671 68.3861 7.13018C68.364 5.21973 67.5475 3.39576 66.1161 2.05892C64.6846 0.722079 62.7552 -0.0183213 60.7517 0.000344554ZM0 72.69V19.1102H15.2587V72.69H0ZM15.2587 72.69L38.2675 19.1102H47.0452H53.1172L30.9894 72.69H15.2587ZM68.3864 19.1102H53.1277V72.69H68.3864V19.1102ZM73.2734 32.1801H93.9226V72.69H109.045V32.1801H130.082V19.2202H73.2734V32.1801ZM200.105 19.1102H202.129H206.166H217.387V72.69H202.129V28.8902L184.038 72.69H168.308L150.217 28.8902V72.69H134.959V19.1102H146.18H152.252H161.03L176.173 54.3801L191.316 19.1102H200.105ZM250.82 60.1501C259.22 60.1501 265.009 54.6201 265.209 46.3801L265.198 46.4101C265.318 44.4423 265.023 42.4714 264.329 40.6145C263.636 38.7576 262.558 37.0524 261.16 35.6002C259.78 34.3093 258.138 33.2996 256.335 32.6326C254.532 31.9656 252.606 31.6552 250.673 31.7202C248.735 31.589 246.79 31.8517 244.966 32.4909C243.142 33.1301 241.481 34.1313 240.093 35.4282C238.705 36.7252 237.622 38.2883 236.915 40.0142C236.208 41.7402 235.893 43.5895 235.991 45.4401C235.908 49.8801 237.208 53.6201 239.735 56.1501C242.263 58.6801 245.986 60.0701 250.506 60.1501H250.82ZM251.019 18.7302C256.414 18.6836 261.723 20.0165 266.394 22.5902H266.404C275.895 27.8102 280.457 36.3401 279.964 47.8101C279.801 53.4072 277.74 58.8032 274.091 63.1901C270.341 67.5401 265.223 70.6251 259.493 71.99C257.582 72.4476 255.641 72.7817 253.683 72.99L252.225 73.17H252.1H251.974C240.742 73 232.877 69.79 227.109 63.0701C223.52 58.8242 221.477 53.5804 221.289 48.1301C220.785 40.2601 222.736 33.8801 227.245 28.6502C232.048 23.0802 238.634 19.8202 246.825 18.9602C248.217 18.8102 249.618 18.7334 251.019 18.7302Z" fill="white"></path></svg>
