<svg xmlns:xlink="http://www.w3.org/1999/xlink" xmlns="http://www.w3.org/2000/svg" width="165" height="50" aria-hidden="true"><defs><symbol id="main-logo" viewBox="0 0 175 50">
<g clip-path="url(#clip0_1_2330)">
<path d="M76.2968 11.0951H73.9913V0H83.2853V11.0951H81.0519V2.01729H76.2968V11.0951Z" fill="currentColor"></path>
<path d="M89.4812 11.3112C88.2565 11.3112 87.1758 10.951 86.3833 10.1585C85.5187 9.36596 85.0864 8.35732 85.0864 7.13253C85.0864 5.97979 85.4467 4.97115 86.2392 4.17864C87.0317 3.38613 87.9683 2.95386 89.1931 2.95386C90.3458 2.95386 91.2824 3.38613 91.9308 4.17864C92.6513 4.97115 92.9395 5.97979 92.9395 7.13253V7.7089H87.2478C87.3919 8.21322 87.6801 8.6455 88.1124 8.93368C88.6167 9.22187 89.1931 9.36596 89.9135 9.36596C90.7781 9.36596 91.6426 9.14982 92.4351 8.6455V10.4467C91.7867 11.023 90.7781 11.3112 89.4812 11.3112ZM87.3199 6.34002H90.7781C90.7781 5.90775 90.5619 5.47547 90.2738 5.18729C89.9856 4.8991 89.5533 4.75501 89.121 4.75501C88.6167 4.75501 88.1844 4.8991 87.8962 5.18729C87.536 5.47547 87.3919 5.8357 87.3199 6.34002Z" fill="currentColor"></path>
<path d="M99.4957 2.95386C100.576 2.95386 101.441 3.38613 102.161 4.17864C102.882 4.97115 103.242 5.97979 103.242 7.13253C103.242 8.28527 102.882 9.29392 102.161 10.0864C101.441 10.8789 100.576 11.3112 99.4957 11.3112C98.415 11.3112 97.5504 10.951 96.902 10.1585V14.2651H94.6686V3.17H96.902V4.1066C97.5504 3.38613 98.415 2.95386 99.4957 2.95386ZM98.9193 4.8991C98.487 4.8991 98.1268 5.0432 97.7666 5.25933C97.4063 5.47547 97.1182 5.76366 96.9741 6.12389V8.21322C97.1902 8.57345 97.4063 8.86164 97.7666 9.07778C98.1268 9.29392 98.487 9.36596 98.9193 9.36596C99.5677 9.36596 100.072 9.14982 100.432 8.71755C100.865 8.28527 101.009 7.78095 101.009 7.13253C101.009 6.48412 100.792 5.97979 100.432 5.54752C100.072 5.11524 99.4957 4.8991 98.9193 4.8991Z" fill="currentColor"></path>
<path d="M108.79 11.3112C107.565 11.3112 106.484 10.951 105.692 10.1585C104.827 9.36596 104.395 8.35732 104.395 7.13253C104.395 5.97979 104.755 4.97115 105.548 4.17864C106.34 3.38613 107.277 2.95386 108.501 2.95386C109.654 2.95386 110.591 3.38613 111.239 4.17864C111.96 4.97115 112.248 5.97979 112.248 7.13253V7.7089H106.556C106.7 8.21322 106.988 8.6455 107.421 8.93368C107.925 9.22187 108.501 9.36596 109.222 9.36596C110.086 9.36596 110.951 9.14982 111.743 8.6455V10.4467C111.095 11.023 110.086 11.3112 108.79 11.3112ZM106.556 6.34002H110.014C110.014 5.90775 109.798 5.47547 109.51 5.18729C109.222 4.8991 108.79 4.75501 108.357 4.75501C107.853 4.75501 107.421 4.8991 107.133 5.18729C106.844 5.47547 106.628 5.8357 106.556 6.34002Z" fill="currentColor"></path>
<path d="M115.346 13.1125H113.184V9.22201H114.193C114.769 8.28542 115.13 6.77245 115.13 4.75516V3.24219H121.758V9.29406H123.055V13.1845H121.037V11.1673H115.346V13.1125ZM116.499 9.22201H119.669V5.04334H117.219C117.219 6.7004 116.931 8.06928 116.499 9.22201Z" fill="currentColor"></path>
<path d="M126.369 7.13253C126.369 7.78095 126.585 8.28527 127.017 8.71755C127.45 9.14982 127.954 9.36596 128.602 9.36596C129.251 9.36596 129.755 9.14982 130.187 8.71755C130.62 8.28527 130.836 7.78095 130.836 7.13253C130.836 6.48412 130.62 5.97979 130.187 5.54752C129.755 5.11524 129.251 4.8991 128.602 4.8991C127.954 4.8991 127.45 5.11524 127.017 5.54752C126.585 5.97979 126.369 6.48412 126.369 7.13253ZM124.135 7.13253C124.135 5.97979 124.568 4.97115 125.36 4.17864C126.153 3.38613 127.233 2.95386 128.53 2.95386C129.827 2.95386 130.836 3.38613 131.7 4.17864C132.493 4.97115 132.925 5.97979 132.925 7.13253C132.925 8.28527 132.493 9.29392 131.7 10.0864C130.908 10.8789 129.827 11.3112 128.53 11.3112C127.233 11.3112 126.225 10.8789 125.36 10.0864C124.568 9.29392 124.135 8.28527 124.135 7.13253Z" fill="currentColor"></path>
<path d="M139.265 11.095H134.582V3.16992H139.049C139.842 3.16992 140.49 3.38606 140.922 3.74629C141.354 4.10652 141.571 4.61084 141.571 5.18721C141.571 5.97972 141.282 6.55609 140.634 6.84427C141.643 7.2045 142.147 7.85292 142.147 8.86156C142.147 9.50998 141.859 10.0863 141.354 10.4466C140.85 10.8789 140.202 11.095 139.265 11.095ZM136.816 7.78087V9.58203H138.689C139.481 9.58203 139.842 9.29384 139.842 8.71747C139.842 8.1411 139.481 7.85292 138.689 7.85292H136.816V7.78087ZM136.816 4.75494V6.33995H138.401C139.121 6.33995 139.481 6.05177 139.481 5.54744C139.481 5.04312 139.049 4.75494 138.329 4.75494H136.816Z" fill="currentColor"></path>
<path d="M154.107 11.095H151.873V3.16992H154.107V11.095ZM147.839 11.095H143.876V3.16992H146.11V5.4754H147.695C148.703 5.4754 149.496 5.76358 150.072 6.2679C150.648 6.77223 150.937 7.42064 150.937 8.2852C150.937 9.0777 150.648 9.72612 150.144 10.3025C149.568 10.8068 148.847 11.095 147.839 11.095ZM146.11 7.13246V9.36589H147.406C147.839 9.36589 148.199 9.29384 148.415 9.0777C148.631 8.86156 148.775 8.64543 148.775 8.2852C148.775 7.92496 148.631 7.63678 148.415 7.49269C148.199 7.27655 147.839 7.2045 147.406 7.2045H146.11V7.13246Z" fill="currentColor"></path>
<path d="M160.23 11.3112C159.006 11.3112 157.925 10.951 157.133 10.1585C156.268 9.36596 155.836 8.35732 155.836 7.13253C155.836 5.97979 156.196 4.97115 156.988 4.17864C157.781 3.38613 158.718 2.95386 159.942 2.95386C161.095 2.95386 162.032 3.38613 162.68 4.17864C163.401 4.97115 163.689 5.97979 163.689 7.13253V7.7089H157.997C158.141 8.21322 158.429 8.6455 158.862 8.93368C159.366 9.22187 159.942 9.36596 160.663 9.36596C161.527 9.36596 162.392 9.14982 163.184 8.6455V10.4467C162.536 11.023 161.527 11.3112 160.23 11.3112ZM157.997 6.34002H161.455C161.455 5.90775 161.239 5.47547 160.951 5.18729C160.663 4.8991 160.231 4.75501 159.798 4.75501C159.294 4.75501 158.862 4.8991 158.573 5.18729C158.285 5.47547 158.069 5.8357 157.997 6.34002Z" fill="currentColor"></path>
<path d="M75.9366 29.8272H73.8473V21.9021H76.0807V26.5851L79.683 21.9021H81.7724V29.8272H79.5389V25.1442L75.9366 29.8272Z" fill="currentColor"></path>
<path d="M86.1671 29.8272H83.9337V21.9021H86.1671V24.856H89.4092V21.9021H91.6426V29.8272H89.4092V26.7292H86.1671V29.8272Z" fill="currentColor"></path>
<path d="M95.6052 29.8272H92.9395L96.3256 25.5765L93.2997 21.9021H95.8213L98.1988 24.856V21.9021H100.432V24.856L102.81 21.9021H105.331L102.305 25.5765L105.764 29.8272H103.026L100.432 26.441V29.8272H98.1988V26.441L95.6052 29.8272Z" fill="currentColor"></path>
<path d="M110.231 30.0431C109.006 30.0431 107.925 29.6829 107.133 28.8904C106.268 28.0979 105.836 27.0892 105.836 25.8645C105.836 24.7117 106.196 23.7031 106.988 22.9106C107.781 22.1181 108.718 21.6858 109.942 21.6858C111.095 21.6858 112.032 22.1181 112.68 22.9106C113.401 23.7031 113.689 24.7117 113.689 25.8645V26.4408H108.069C108.213 26.9452 108.501 27.3774 108.934 27.6656C109.438 27.9538 110.014 28.0979 110.735 28.0979C111.599 28.0979 112.464 27.8818 113.256 27.3774V29.1786C112.536 29.755 111.527 30.0431 110.231 30.0431ZM108.069 25.072H111.527C111.527 24.6397 111.311 24.2074 111.023 23.9192C110.735 23.631 110.303 23.4869 109.87 23.4869C109.366 23.4869 108.934 23.631 108.645 23.9192C108.285 24.2074 108.141 24.5676 108.069 25.072Z" fill="currentColor"></path>
<path d="M117.651 29.8272H115.418V21.9021H117.651V24.856H120.893V21.9021H123.127V29.8272H120.893V26.7292H117.651V29.8272Z" fill="currentColor"></path>
<path d="M129.251 30.0431C128.026 30.0431 126.945 29.6829 126.153 28.8904C125.288 28.0979 124.856 27.0892 124.856 25.8645C124.856 24.7117 125.216 23.7031 126.009 22.9106C126.801 22.1181 127.738 21.6858 128.963 21.6858C130.115 21.6858 131.052 22.1181 131.7 22.9106C132.421 23.7031 132.709 24.7117 132.709 25.8645V26.4408H127.017C127.161 26.9452 127.45 27.3774 127.882 27.6656C128.386 27.9538 128.963 28.0979 129.683 28.0979C130.548 28.0979 131.412 27.8818 132.205 27.3774V29.1786C131.556 29.755 130.548 30.0431 129.251 30.0431ZM127.089 25.072H130.548C130.548 24.6397 130.331 24.2074 130.043 23.9192C129.755 23.631 129.323 23.4869 128.891 23.4869C128.386 23.4869 127.954 23.631 127.666 23.9192C127.306 24.2074 127.089 24.5676 127.089 25.072Z" fill="currentColor"></path>
<path d="M139.265 21.6858C140.346 21.6858 141.21 22.1181 141.931 22.9106C142.651 23.7031 143.011 24.7117 143.011 25.8645C143.011 27.0172 142.651 28.0258 141.931 28.8184C141.21 29.6109 140.346 29.9711 139.265 29.9711C138.184 29.9711 137.32 29.6109 136.671 28.8184V32.925H134.438V21.9019H136.671V22.8385C137.248 22.1181 138.112 21.6858 139.265 21.6858ZM138.617 23.631C138.184 23.631 137.824 23.7751 137.464 23.9913C137.104 24.2074 136.816 24.4956 136.671 24.8558V26.9452C136.888 27.3054 137.104 27.5936 137.464 27.8097C137.824 28.0258 138.184 28.0979 138.617 28.0979C139.265 28.0979 139.769 27.8818 140.13 27.4495C140.562 27.0172 140.706 26.5129 140.706 25.8645C140.706 25.2161 140.49 24.7117 140.13 24.2795C139.769 23.8472 139.265 23.631 138.617 23.631Z" fill="currentColor"></path>
<path d="M146.902 29.8272H144.669V21.9021H146.902V24.856H150.144V21.9021H152.378V29.8272H150.144V26.7292H146.902V29.8272Z" fill="currentColor"></path>
<path d="M164.842 29.8272H162.608V21.9021H164.842V29.8272ZM158.501 29.8272H154.539V21.9021H156.772V24.2076H158.357C159.366 24.2076 160.159 24.4958 160.735 25.0001C161.311 25.5044 161.599 26.1528 161.599 27.0174C161.599 27.8099 161.311 28.4583 160.807 29.0347C160.303 29.539 159.51 29.8272 158.501 29.8272ZM156.772 25.8646V28.0981H158.069C158.501 28.0981 158.862 28.026 159.078 27.8099C159.294 27.5937 159.438 27.3776 159.438 27.0174C159.438 26.6571 159.294 26.369 159.078 26.2249C158.862 26.0087 158.501 25.9367 158.069 25.9367H156.772V25.8646Z" fill="currentColor"></path>
<path d="M170.893 30.0431C169.669 30.0431 168.588 29.6829 167.795 28.8904C167.003 28.0979 166.499 27.0892 166.499 25.8645C166.499 24.7117 166.859 23.7031 167.651 22.9106C168.444 22.1181 169.38 21.6858 170.605 21.6858C171.758 21.6858 172.695 22.1181 173.343 22.9106C174.063 23.7031 174.352 24.7117 174.352 25.8645V26.4408H168.66C168.804 26.9452 169.092 27.3774 169.524 27.6656C170.029 27.9538 170.605 28.0979 171.326 28.0979C172.19 28.0979 173.055 27.8818 173.847 27.3774V29.1786C173.199 29.755 172.19 30.0431 170.893 30.0431ZM168.732 25.072H172.19C172.19 24.6397 171.974 24.2074 171.686 23.9192C171.398 23.631 170.965 23.4869 170.533 23.4869C170.029 23.4869 169.597 23.631 169.308 23.9192C168.948 24.2074 168.732 24.5676 168.732 25.072Z" fill="currentColor"></path>
<path d="M85.3026 48.5591H73.8473V40.634H76.0807V46.6859H78.4582V40.634H80.6196V46.6859H83.0692V40.634H85.2306V48.5591H85.3026Z" fill="currentColor"></path>
<path d="M89.6974 48.5591H87.464V40.634H89.6974V43.5159L92.4352 40.634H95.1729L91.7147 44.2363L95.6772 48.5591H92.7954L89.6974 45.1729V48.5591Z" fill="currentColor"></path>
<path d="M98.0547 44.5965C98.0547 45.2449 98.2708 45.7493 98.7031 46.1815C99.1354 46.6138 99.6397 46.83 100.288 46.83C100.937 46.83 101.441 46.6138 101.873 46.1815C102.305 45.7493 102.522 45.2449 102.522 44.5965C102.522 43.9481 102.305 43.4438 101.873 43.0115C101.441 42.5792 100.937 42.3631 100.288 42.3631C99.6397 42.3631 99.1354 42.5792 98.7031 43.0115C98.2708 43.4438 98.0547 43.9481 98.0547 44.5965ZM95.8933 44.5965C95.8933 43.4438 96.3256 42.4351 97.1181 41.6426C97.9106 40.8501 98.9913 40.4178 100.288 40.4178C101.585 40.4178 102.594 40.8501 103.458 41.6426C104.251 42.4351 104.683 43.4438 104.683 44.5965C104.683 45.7493 104.251 46.7579 103.458 47.5504C102.666 48.3429 101.585 48.7752 100.288 48.7752C98.9913 48.7752 97.9826 48.3429 97.1181 47.5504C96.2535 46.7579 95.8933 45.7493 95.8933 44.5965Z" fill="currentColor"></path>
<path d="M111.671 42.5072H109.222V43.5879C109.15 44.7406 109.078 45.6772 108.862 46.3977C108.646 47.1182 108.357 47.6225 107.925 48.0548C107.493 48.415 106.916 48.6311 106.196 48.6311C105.836 48.6311 105.548 48.5591 105.331 48.487V46.6859C105.476 46.7579 105.62 46.7579 105.764 46.7579C106.268 46.7579 106.628 46.3977 106.772 45.7493C106.916 45.1729 106.988 44.2363 107.061 43.0115L107.133 40.7061H113.977V48.6311H111.671V42.5072Z" fill="currentColor"></path>
<path d="M126.369 48.5591H124.135V40.634H126.369V48.5591ZM120.029 48.5591H116.066V40.634H118.3V42.9395H119.885C120.893 42.9395 121.686 43.2277 122.262 43.732C122.839 44.2363 123.127 44.8848 123.127 45.7493C123.127 46.5418 122.839 47.1902 122.334 47.7666C121.83 48.2709 121.037 48.5591 120.029 48.5591ZM118.3 44.5966V46.83H119.597C120.029 46.83 120.389 46.758 120.605 46.5418C120.821 46.3257 120.965 46.1095 120.965 45.7493C120.965 45.3891 120.821 45.1009 120.605 44.9568C120.389 44.7407 120.029 44.6686 119.597 44.6686H118.3V44.5966Z" fill="currentColor"></path>
<path d="M14.049 49.9999C15.8395 49.9999 17.291 48.5484 17.291 46.7578C17.291 44.9673 15.8395 43.5157 14.049 43.5157C12.2584 43.5157 10.8069 44.9673 10.8069 46.7578C10.8069 48.5484 12.2584 49.9999 14.049 49.9999Z" fill="currentColor" fill-opacity="0.4"></path>
<path d="M24.8558 6.77224C26.6464 6.77224 28.0979 5.32071 28.0979 3.53016C28.0979 1.73961 26.6464 0.288086 24.8558 0.288086C23.0653 0.288086 21.6138 1.73961 21.6138 3.53016C21.6138 5.32071 23.0653 6.77224 24.8558 6.77224Z" fill="currentColor" fill-opacity="0.4"></path>
<path d="M24.8558 17.5791C26.6464 17.5791 28.0979 16.1276 28.0979 14.337C28.0979 12.5465 26.6464 11.095 24.8558 11.095C23.0653 11.095 21.6138 12.5465 21.6138 14.337C21.6138 16.1276 23.0653 17.5791 24.8558 17.5791Z" fill="currentColor" fill-opacity="0.4"></path>
<path d="M24.8558 39.193C26.6464 39.193 28.0979 37.7415 28.0979 35.9509C28.0979 34.1604 26.6464 32.7089 24.8558 32.7089C23.0653 32.7089 21.6138 34.1604 21.6138 35.9509C21.6138 37.7415 23.0653 39.193 24.8558 39.193Z" fill="currentColor" fill-opacity="0.4"></path>
<path d="M24.8558 49.9999C26.6464 49.9999 28.0979 48.5484 28.0979 46.7578C28.0979 44.9673 26.6464 43.5157 24.8558 43.5157C23.0653 43.5157 21.6138 44.9673 21.6138 46.7578C21.6138 48.5484 23.0653 49.9999 24.8558 49.9999Z" fill="currentColor" fill-opacity="0.4"></path>
<path d="M35.6628 6.77224C37.4534 6.77224 38.9049 5.32071 38.9049 3.53016C38.9049 1.73961 37.4534 0.288086 35.6628 0.288086C33.8723 0.288086 32.4208 1.73961 32.4208 3.53016C32.4208 5.32071 33.8723 6.77224 35.6628 6.77224Z" fill="currentColor" fill-opacity="0.4"></path>
<path d="M3.24207 6.77224C5.03262 6.77224 6.48415 5.32071 6.48415 3.53016C6.48415 1.73961 5.03262 0.288086 3.24207 0.288086C1.45153 0.288086 0 1.73961 0 3.53016C0 5.32071 1.45153 6.77224 3.24207 6.77224Z" fill="currentColor"></path>
<path d="M3.24207 17.5791C5.03262 17.5791 6.48415 16.1276 6.48415 14.337C6.48415 12.5465 5.03262 11.095 3.24207 11.095C1.45153 11.095 0 12.5465 0 14.337C0 16.1276 1.45153 17.5791 3.24207 17.5791Z" fill="currentColor"></path>
<path d="M3.24207 28.386C5.03262 28.386 6.48415 26.9345 6.48415 25.1439C6.48415 23.3534 5.03262 21.9019 3.24207 21.9019C1.45153 21.9019 0 23.3534 0 25.1439C0 26.9345 1.45153 28.386 3.24207 28.386Z" fill="currentColor"></path>
<path d="M3.24207 39.193C5.03262 39.193 6.48415 37.7415 6.48415 35.9509C6.48415 34.1604 5.03262 32.7089 3.24207 32.7089C1.45153 32.7089 0 34.1604 0 35.9509C0 37.7415 1.45153 39.193 3.24207 39.193Z" fill="currentColor"></path>
<path d="M3.24207 49.9999C5.03262 49.9999 6.48415 48.5484 6.48415 46.7578C6.48415 44.9673 5.03262 43.5157 3.24207 43.5157C1.45153 43.5157 0 44.9673 0 46.7578C0 48.5484 1.45153 49.9999 3.24207 49.9999Z" fill="currentColor"></path>
<path d="M14.049 6.77224C15.8395 6.77224 17.291 5.32071 17.291 3.53016C17.291 1.73961 15.8395 0.288086 14.049 0.288086C12.2584 0.288086 10.8069 1.73961 10.8069 3.53016C10.8069 5.32071 12.2584 6.77224 14.049 6.77224Z" fill="currentColor"></path>
<path d="M14.049 17.5791C15.8395 17.5791 17.291 16.1276 17.291 14.337C17.291 12.5465 15.8395 11.095 14.049 11.095C12.2584 11.095 10.8069 12.5465 10.8069 14.337C10.8069 16.1276 12.2584 17.5791 14.049 17.5791Z" fill="currentColor"></path>
<path d="M14.049 28.386C15.8395 28.386 17.291 26.9345 17.291 25.1439C17.291 23.3534 15.8395 21.9019 14.049 21.9019C12.2584 21.9019 10.8069 23.3534 10.8069 25.1439C10.8069 26.9345 12.2584 28.386 14.049 28.386Z" fill="currentColor"></path>
<path d="M14.049 39.193C15.8395 39.193 17.291 37.7415 17.291 35.9509C17.291 34.1604 15.8395 32.7089 14.049 32.7089C12.2584 32.7089 10.8069 34.1604 10.8069 35.9509C10.8069 37.7415 12.2584 39.193 14.049 39.193Z" fill="currentColor"></path>
<path d="M24.856 28.386C26.6465 28.386 28.098 26.9345 28.098 25.1439C28.098 23.3534 26.6465 21.9019 24.856 21.9019C23.0654 21.9019 21.6139 23.3534 21.6139 25.1439C21.6139 26.9345 23.0654 28.386 24.856 28.386Z" fill="currentColor"></path>
<path d="M35.6628 17.5791C37.4534 17.5791 38.9049 16.1276 38.9049 14.337C38.9049 12.5465 37.4534 11.095 35.6628 11.095C33.8723 11.095 32.4208 12.5465 32.4208 14.337C32.4208 16.1276 33.8723 17.5791 35.6628 17.5791Z" fill="currentColor"></path>
<path d="M35.6628 28.386C37.4534 28.386 38.9049 26.9345 38.9049 25.1439C38.9049 23.3534 37.4534 21.9019 35.6628 21.9019C33.8723 21.9019 32.4208 23.3534 32.4208 25.1439C32.4208 26.9345 33.8723 28.386 35.6628 28.386Z" fill="currentColor"></path>
<path d="M35.6628 39.193C37.4534 39.193 38.9049 37.7415 38.9049 35.9509C38.9049 34.1604 37.4534 32.7089 35.6628 32.7089C33.8723 32.7089 32.4208 34.1604 32.4208 35.9509C32.4208 37.7415 33.8723 39.193 35.6628 39.193Z" fill="currentColor"></path>
<path d="M35.6628 49.9999C37.4534 49.9999 38.9049 48.5484 38.9049 46.7578C38.9049 44.9673 37.4534 43.5157 35.6628 43.5157C33.8723 43.5157 32.4208 44.9673 32.4208 46.7578C32.4208 48.5484 33.8723 49.9999 35.6628 49.9999Z" fill="currentColor"></path>
<path d="M46.4697 6.77224C48.2603 6.77224 49.7118 5.32071 49.7118 3.53016C49.7118 1.73961 48.2603 0.288086 46.4697 0.288086C44.6792 0.288086 43.2277 1.73961 43.2277 3.53016C43.2277 5.32071 44.6792 6.77224 46.4697 6.77224Z" fill="currentColor"></path>
<path d="M46.4697 17.5791C48.2603 17.5791 49.7118 16.1276 49.7118 14.337C49.7118 12.5465 48.2603 11.095 46.4697 11.095C44.6792 11.095 43.2277 12.5465 43.2277 14.337C43.2277 16.1276 44.6792 17.5791 46.4697 17.5791Z" fill="currentColor"></path>
<path d="M46.4697 28.386C48.2603 28.386 49.7118 26.9345 49.7118 25.1439C49.7118 23.3534 48.2603 21.9019 46.4697 21.9019C44.6792 21.9019 43.2277 23.3534 43.2277 25.1439C43.2277 26.9345 44.6792 28.386 46.4697 28.386Z" fill="currentColor"></path>
<path d="M46.4697 39.193C48.2603 39.193 49.7118 37.7415 49.7118 35.9509C49.7118 34.1604 48.2603 32.7089 46.4697 32.7089C44.6792 32.7089 43.2277 34.1604 43.2277 35.9509C43.2277 37.7415 44.6792 39.193 46.4697 39.193Z" fill="currentColor"></path>
<path d="M46.4697 49.9999C48.2603 49.9999 49.7118 48.5484 49.7118 46.7578C49.7118 44.9673 48.2603 43.5157 46.4697 43.5157C44.6792 43.5157 43.2277 44.9673 43.2277 46.7578C43.2277 48.5484 44.6792 49.9999 46.4697 49.9999Z" fill="currentColor"></path>
</g>

</symbol></defs>
                        <g>
<g clip-path="url(#clip0_1_2330)">
<path d="M76.2968 11.0951H73.9913V0H83.2853V11.0951H81.0519V2.01729H76.2968V11.0951Z" fill="currentColor"></path>
<path d="M89.4812 11.3112C88.2565 11.3112 87.1758 10.951 86.3833 10.1585C85.5187 9.36596 85.0864 8.35732 85.0864 7.13253C85.0864 5.97979 85.4467 4.97115 86.2392 4.17864C87.0317 3.38613 87.9683 2.95386 89.1931 2.95386C90.3458 2.95386 91.2824 3.38613 91.9308 4.17864C92.6513 4.97115 92.9395 5.97979 92.9395 7.13253V7.7089H87.2478C87.3919 8.21322 87.6801 8.6455 88.1124 8.93368C88.6167 9.22187 89.1931 9.36596 89.9135 9.36596C90.7781 9.36596 91.6426 9.14982 92.4351 8.6455V10.4467C91.7867 11.023 90.7781 11.3112 89.4812 11.3112ZM87.3199 6.34002H90.7781C90.7781 5.90775 90.5619 5.47547 90.2738 5.18729C89.9856 4.8991 89.5533 4.75501 89.121 4.75501C88.6167 4.75501 88.1844 4.8991 87.8962 5.18729C87.536 5.47547 87.3919 5.8357 87.3199 6.34002Z" fill="currentColor"></path>
<path d="M99.4957 2.95386C100.576 2.95386 101.441 3.38613 102.161 4.17864C102.882 4.97115 103.242 5.97979 103.242 7.13253C103.242 8.28527 102.882 9.29392 102.161 10.0864C101.441 10.8789 100.576 11.3112 99.4957 11.3112C98.415 11.3112 97.5504 10.951 96.902 10.1585V14.2651H94.6686V3.17H96.902V4.1066C97.5504 3.38613 98.415 2.95386 99.4957 2.95386ZM98.9193 4.8991C98.487 4.8991 98.1268 5.0432 97.7666 5.25933C97.4063 5.47547 97.1182 5.76366 96.9741 6.12389V8.21322C97.1902 8.57345 97.4063 8.86164 97.7666 9.07778C98.1268 9.29392 98.487 9.36596 98.9193 9.36596C99.5677 9.36596 100.072 9.14982 100.432 8.71755C100.865 8.28527 101.009 7.78095 101.009 7.13253C101.009 6.48412 100.792 5.97979 100.432 5.54752C100.072 5.11524 99.4957 4.8991 98.9193 4.8991Z" fill="currentColor"></path>
<path d="M108.79 11.3112C107.565 11.3112 106.484 10.951 105.692 10.1585C104.827 9.36596 104.395 8.35732 104.395 7.13253C104.395 5.97979 104.755 4.97115 105.548 4.17864C106.34 3.38613 107.277 2.95386 108.501 2.95386C109.654 2.95386 110.591 3.38613 111.239 4.17864C111.96 4.97115 112.248 5.97979 112.248 7.13253V7.7089H106.556C106.7 8.21322 106.988 8.6455 107.421 8.93368C107.925 9.22187 108.501 9.36596 109.222 9.36596C110.086 9.36596 110.951 9.14982 111.743 8.6455V10.4467C111.095 11.023 110.086 11.3112 108.79 11.3112ZM106.556 6.34002H110.014C110.014 5.90775 109.798 5.47547 109.51 5.18729C109.222 4.8991 108.79 4.75501 108.357 4.75501C107.853 4.75501 107.421 4.8991 107.133 5.18729C106.844 5.47547 106.628 5.8357 106.556 6.34002Z" fill="currentColor"></path>
<path d="M115.346 13.1125H113.184V9.22201H114.193C114.769 8.28542 115.13 6.77245 115.13 4.75516V3.24219H121.758V9.29406H123.055V13.1845H121.037V11.1673H115.346V13.1125ZM116.499 9.22201H119.669V5.04334H117.219C117.219 6.7004 116.931 8.06928 116.499 9.22201Z" fill="currentColor"></path>
<path d="M126.369 7.13253C126.369 7.78095 126.585 8.28527 127.017 8.71755C127.45 9.14982 127.954 9.36596 128.602 9.36596C129.251 9.36596 129.755 9.14982 130.187 8.71755C130.62 8.28527 130.836 7.78095 130.836 7.13253C130.836 6.48412 130.62 5.97979 130.187 5.54752C129.755 5.11524 129.251 4.8991 128.602 4.8991C127.954 4.8991 127.45 5.11524 127.017 5.54752C126.585 5.97979 126.369 6.48412 126.369 7.13253ZM124.135 7.13253C124.135 5.97979 124.568 4.97115 125.36 4.17864C126.153 3.38613 127.233 2.95386 128.53 2.95386C129.827 2.95386 130.836 3.38613 131.7 4.17864C132.493 4.97115 132.925 5.97979 132.925 7.13253C132.925 8.28527 132.493 9.29392 131.7 10.0864C130.908 10.8789 129.827 11.3112 128.53 11.3112C127.233 11.3112 126.225 10.8789 125.36 10.0864C124.568 9.29392 124.135 8.28527 124.135 7.13253Z" fill="currentColor"></path>
<path d="M139.265 11.095H134.582V3.16992H139.049C139.842 3.16992 140.49 3.38606 140.922 3.74629C141.354 4.10652 141.571 4.61084 141.571 5.18721C141.571 5.97972 141.282 6.55609 140.634 6.84427C141.643 7.2045 142.147 7.85292 142.147 8.86156C142.147 9.50998 141.859 10.0863 141.354 10.4466C140.85 10.8789 140.202 11.095 139.265 11.095ZM136.816 7.78087V9.58203H138.689C139.481 9.58203 139.842 9.29384 139.842 8.71747C139.842 8.1411 139.481 7.85292 138.689 7.85292H136.816V7.78087ZM136.816 4.75494V6.33995H138.401C139.121 6.33995 139.481 6.05177 139.481 5.54744C139.481 5.04312 139.049 4.75494 138.329 4.75494H136.816Z" fill="currentColor"></path>
<path d="M154.107 11.095H151.873V3.16992H154.107V11.095ZM147.839 11.095H143.876V3.16992H146.11V5.4754H147.695C148.703 5.4754 149.496 5.76358 150.072 6.2679C150.648 6.77223 150.937 7.42064 150.937 8.2852C150.937 9.0777 150.648 9.72612 150.144 10.3025C149.568 10.8068 148.847 11.095 147.839 11.095ZM146.11 7.13246V9.36589H147.406C147.839 9.36589 148.199 9.29384 148.415 9.0777C148.631 8.86156 148.775 8.64543 148.775 8.2852C148.775 7.92496 148.631 7.63678 148.415 7.49269C148.199 7.27655 147.839 7.2045 147.406 7.2045H146.11V7.13246Z" fill="currentColor"></path>
<path d="M160.23 11.3112C159.006 11.3112 157.925 10.951 157.133 10.1585C156.268 9.36596 155.836 8.35732 155.836 7.13253C155.836 5.97979 156.196 4.97115 156.988 4.17864C157.781 3.38613 158.718 2.95386 159.942 2.95386C161.095 2.95386 162.032 3.38613 162.68 4.17864C163.401 4.97115 163.689 5.97979 163.689 7.13253V7.7089H157.997C158.141 8.21322 158.429 8.6455 158.862 8.93368C159.366 9.22187 159.942 9.36596 160.663 9.36596C161.527 9.36596 162.392 9.14982 163.184 8.6455V10.4467C162.536 11.023 161.527 11.3112 160.23 11.3112ZM157.997 6.34002H161.455C161.455 5.90775 161.239 5.47547 160.951 5.18729C160.663 4.8991 160.231 4.75501 159.798 4.75501C159.294 4.75501 158.862 4.8991 158.573 5.18729C158.285 5.47547 158.069 5.8357 157.997 6.34002Z" fill="currentColor"></path>
<path d="M75.9366 29.8272H73.8473V21.9021H76.0807V26.5851L79.683 21.9021H81.7724V29.8272H79.5389V25.1442L75.9366 29.8272Z" fill="currentColor"></path>
<path d="M86.1671 29.8272H83.9337V21.9021H86.1671V24.856H89.4092V21.9021H91.6426V29.8272H89.4092V26.7292H86.1671V29.8272Z" fill="currentColor"></path>
<path d="M95.6052 29.8272H92.9395L96.3256 25.5765L93.2997 21.9021H95.8213L98.1988 24.856V21.9021H100.432V24.856L102.81 21.9021H105.331L102.305 25.5765L105.764 29.8272H103.026L100.432 26.441V29.8272H98.1988V26.441L95.6052 29.8272Z" fill="currentColor"></path>
<path d="M110.231 30.0431C109.006 30.0431 107.925 29.6829 107.133 28.8904C106.268 28.0979 105.836 27.0892 105.836 25.8645C105.836 24.7117 106.196 23.7031 106.988 22.9106C107.781 22.1181 108.718 21.6858 109.942 21.6858C111.095 21.6858 112.032 22.1181 112.68 22.9106C113.401 23.7031 113.689 24.7117 113.689 25.8645V26.4408H108.069C108.213 26.9452 108.501 27.3774 108.934 27.6656C109.438 27.9538 110.014 28.0979 110.735 28.0979C111.599 28.0979 112.464 27.8818 113.256 27.3774V29.1786C112.536 29.755 111.527 30.0431 110.231 30.0431ZM108.069 25.072H111.527C111.527 24.6397 111.311 24.2074 111.023 23.9192C110.735 23.631 110.303 23.4869 109.87 23.4869C109.366 23.4869 108.934 23.631 108.645 23.9192C108.285 24.2074 108.141 24.5676 108.069 25.072Z" fill="currentColor"></path>
<path d="M117.651 29.8272H115.418V21.9021H117.651V24.856H120.893V21.9021H123.127V29.8272H120.893V26.7292H117.651V29.8272Z" fill="currentColor"></path>
<path d="M129.251 30.0431C128.026 30.0431 126.945 29.6829 126.153 28.8904C125.288 28.0979 124.856 27.0892 124.856 25.8645C124.856 24.7117 125.216 23.7031 126.009 22.9106C126.801 22.1181 127.738 21.6858 128.963 21.6858C130.115 21.6858 131.052 22.1181 131.7 22.9106C132.421 23.7031 132.709 24.7117 132.709 25.8645V26.4408H127.017C127.161 26.9452 127.45 27.3774 127.882 27.6656C128.386 27.9538 128.963 28.0979 129.683 28.0979C130.548 28.0979 131.412 27.8818 132.205 27.3774V29.1786C131.556 29.755 130.548 30.0431 129.251 30.0431ZM127.089 25.072H130.548C130.548 24.6397 130.331 24.2074 130.043 23.9192C129.755 23.631 129.323 23.4869 128.891 23.4869C128.386 23.4869 127.954 23.631 127.666 23.9192C127.306 24.2074 127.089 24.5676 127.089 25.072Z" fill="currentColor"></path>
<path d="M139.265 21.6858C140.346 21.6858 141.21 22.1181 141.931 22.9106C142.651 23.7031 143.011 24.7117 143.011 25.8645C143.011 27.0172 142.651 28.0258 141.931 28.8184C141.21 29.6109 140.346 29.9711 139.265 29.9711C138.184 29.9711 137.32 29.6109 136.671 28.8184V32.925H134.438V21.9019H136.671V22.8385C137.248 22.1181 138.112 21.6858 139.265 21.6858ZM138.617 23.631C138.184 23.631 137.824 23.7751 137.464 23.9913C137.104 24.2074 136.816 24.4956 136.671 24.8558V26.9452C136.888 27.3054 137.104 27.5936 137.464 27.8097C137.824 28.0258 138.184 28.0979 138.617 28.0979C139.265 28.0979 139.769 27.8818 140.13 27.4495C140.562 27.0172 140.706 26.5129 140.706 25.8645C140.706 25.2161 140.49 24.7117 140.13 24.2795C139.769 23.8472 139.265 23.631 138.617 23.631Z" fill="currentColor"></path>
<path d="M146.902 29.8272H144.669V21.9021H146.902V24.856H150.144V21.9021H152.378V29.8272H150.144V26.7292H146.902V29.8272Z" fill="currentColor"></path>
<path d="M164.842 29.8272H162.608V21.9021H164.842V29.8272ZM158.501 29.8272H154.539V21.9021H156.772V24.2076H158.357C159.366 24.2076 160.159 24.4958 160.735 25.0001C161.311 25.5044 161.599 26.1528 161.599 27.0174C161.599 27.8099 161.311 28.4583 160.807 29.0347C160.303 29.539 159.51 29.8272 158.501 29.8272ZM156.772 25.8646V28.0981H158.069C158.501 28.0981 158.862 28.026 159.078 27.8099C159.294 27.5937 159.438 27.3776 159.438 27.0174C159.438 26.6571 159.294 26.369 159.078 26.2249C158.862 26.0087 158.501 25.9367 158.069 25.9367H156.772V25.8646Z" fill="currentColor"></path>
<path d="M170.893 30.0431C169.669 30.0431 168.588 29.6829 167.795 28.8904C167.003 28.0979 166.499 27.0892 166.499 25.8645C166.499 24.7117 166.859 23.7031 167.651 22.9106C168.444 22.1181 169.38 21.6858 170.605 21.6858C171.758 21.6858 172.695 22.1181 173.343 22.9106C174.063 23.7031 174.352 24.7117 174.352 25.8645V26.4408H168.66C168.804 26.9452 169.092 27.3774 169.524 27.6656C170.029 27.9538 170.605 28.0979 171.326 28.0979C172.19 28.0979 173.055 27.8818 173.847 27.3774V29.1786C173.199 29.755 172.19 30.0431 170.893 30.0431ZM168.732 25.072H172.19C172.19 24.6397 171.974 24.2074 171.686 23.9192C171.398 23.631 170.965 23.4869 170.533 23.4869C170.029 23.4869 169.597 23.631 169.308 23.9192C168.948 24.2074 168.732 24.5676 168.732 25.072Z" fill="currentColor"></path>
<path d="M85.3026 48.5591H73.8473V40.634H76.0807V46.6859H78.4582V40.634H80.6196V46.6859H83.0692V40.634H85.2306V48.5591H85.3026Z" fill="currentColor"></path>
<path d="M89.6974 48.5591H87.464V40.634H89.6974V43.5159L92.4352 40.634H95.1729L91.7147 44.2363L95.6772 48.5591H92.7954L89.6974 45.1729V48.5591Z" fill="currentColor"></path>
<path d="M98.0547 44.5965C98.0547 45.2449 98.2708 45.7493 98.7031 46.1815C99.1354 46.6138 99.6397 46.83 100.288 46.83C100.937 46.83 101.441 46.6138 101.873 46.1815C102.305 45.7493 102.522 45.2449 102.522 44.5965C102.522 43.9481 102.305 43.4438 101.873 43.0115C101.441 42.5792 100.937 42.3631 100.288 42.3631C99.6397 42.3631 99.1354 42.5792 98.7031 43.0115C98.2708 43.4438 98.0547 43.9481 98.0547 44.5965ZM95.8933 44.5965C95.8933 43.4438 96.3256 42.4351 97.1181 41.6426C97.9106 40.8501 98.9913 40.4178 100.288 40.4178C101.585 40.4178 102.594 40.8501 103.458 41.6426C104.251 42.4351 104.683 43.4438 104.683 44.5965C104.683 45.7493 104.251 46.7579 103.458 47.5504C102.666 48.3429 101.585 48.7752 100.288 48.7752C98.9913 48.7752 97.9826 48.3429 97.1181 47.5504C96.2535 46.7579 95.8933 45.7493 95.8933 44.5965Z" fill="currentColor"></path>
<path d="M111.671 42.5072H109.222V43.5879C109.15 44.7406 109.078 45.6772 108.862 46.3977C108.646 47.1182 108.357 47.6225 107.925 48.0548C107.493 48.415 106.916 48.6311 106.196 48.6311C105.836 48.6311 105.548 48.5591 105.331 48.487V46.6859C105.476 46.7579 105.62 46.7579 105.764 46.7579C106.268 46.7579 106.628 46.3977 106.772 45.7493C106.916 45.1729 106.988 44.2363 107.061 43.0115L107.133 40.7061H113.977V48.6311H111.671V42.5072Z" fill="currentColor"></path>
<path d="M126.369 48.5591H124.135V40.634H126.369V48.5591ZM120.029 48.5591H116.066V40.634H118.3V42.9395H119.885C120.893 42.9395 121.686 43.2277 122.262 43.732C122.839 44.2363 123.127 44.8848 123.127 45.7493C123.127 46.5418 122.839 47.1902 122.334 47.7666C121.83 48.2709 121.037 48.5591 120.029 48.5591ZM118.3 44.5966V46.83H119.597C120.029 46.83 120.389 46.758 120.605 46.5418C120.821 46.3257 120.965 46.1095 120.965 45.7493C120.965 45.3891 120.821 45.1009 120.605 44.9568C120.389 44.7407 120.029 44.6686 119.597 44.6686H118.3V44.5966Z" fill="currentColor"></path>
<path d="M14.049 49.9999C15.8395 49.9999 17.291 48.5484 17.291 46.7578C17.291 44.9673 15.8395 43.5157 14.049 43.5157C12.2584 43.5157 10.8069 44.9673 10.8069 46.7578C10.8069 48.5484 12.2584 49.9999 14.049 49.9999Z" fill="currentColor" fill-opacity="0.4"></path>
<path d="M24.8558 6.77224C26.6464 6.77224 28.0979 5.32071 28.0979 3.53016C28.0979 1.73961 26.6464 0.288086 24.8558 0.288086C23.0653 0.288086 21.6138 1.73961 21.6138 3.53016C21.6138 5.32071 23.0653 6.77224 24.8558 6.77224Z" fill="currentColor" fill-opacity="0.4"></path>
<path d="M24.8558 17.5791C26.6464 17.5791 28.0979 16.1276 28.0979 14.337C28.0979 12.5465 26.6464 11.095 24.8558 11.095C23.0653 11.095 21.6138 12.5465 21.6138 14.337C21.6138 16.1276 23.0653 17.5791 24.8558 17.5791Z" fill="currentColor" fill-opacity="0.4"></path>
<path d="M24.8558 39.193C26.6464 39.193 28.0979 37.7415 28.0979 35.9509C28.0979 34.1604 26.6464 32.7089 24.8558 32.7089C23.0653 32.7089 21.6138 34.1604 21.6138 35.9509C21.6138 37.7415 23.0653 39.193 24.8558 39.193Z" fill="currentColor" fill-opacity="0.4"></path>
<path d="M24.8558 49.9999C26.6464 49.9999 28.0979 48.5484 28.0979 46.7578C28.0979 44.9673 26.6464 43.5157 24.8558 43.5157C23.0653 43.5157 21.6138 44.9673 21.6138 46.7578C21.6138 48.5484 23.0653 49.9999 24.8558 49.9999Z" fill="currentColor" fill-opacity="0.4"></path>
<path d="M35.6628 6.77224C37.4534 6.77224 38.9049 5.32071 38.9049 3.53016C38.9049 1.73961 37.4534 0.288086 35.6628 0.288086C33.8723 0.288086 32.4208 1.73961 32.4208 3.53016C32.4208 5.32071 33.8723 6.77224 35.6628 6.77224Z" fill="currentColor" fill-opacity="0.4"></path>
<path d="M3.24207 6.77224C5.03262 6.77224 6.48415 5.32071 6.48415 3.53016C6.48415 1.73961 5.03262 0.288086 3.24207 0.288086C1.45153 0.288086 0 1.73961 0 3.53016C0 5.32071 1.45153 6.77224 3.24207 6.77224Z" fill="currentColor"></path>
<path d="M3.24207 17.5791C5.03262 17.5791 6.48415 16.1276 6.48415 14.337C6.48415 12.5465 5.03262 11.095 3.24207 11.095C1.45153 11.095 0 12.5465 0 14.337C0 16.1276 1.45153 17.5791 3.24207 17.5791Z" fill="currentColor"></path>
<path d="M3.24207 28.386C5.03262 28.386 6.48415 26.9345 6.48415 25.1439C6.48415 23.3534 5.03262 21.9019 3.24207 21.9019C1.45153 21.9019 0 23.3534 0 25.1439C0 26.9345 1.45153 28.386 3.24207 28.386Z" fill="currentColor"></path>
<path d="M3.24207 39.193C5.03262 39.193 6.48415 37.7415 6.48415 35.9509C6.48415 34.1604 5.03262 32.7089 3.24207 32.7089C1.45153 32.7089 0 34.1604 0 35.9509C0 37.7415 1.45153 39.193 3.24207 39.193Z" fill="currentColor"></path>
<path d="M3.24207 49.9999C5.03262 49.9999 6.48415 48.5484 6.48415 46.7578C6.48415 44.9673 5.03262 43.5157 3.24207 43.5157C1.45153 43.5157 0 44.9673 0 46.7578C0 48.5484 1.45153 49.9999 3.24207 49.9999Z" fill="currentColor"></path>
<path d="M14.049 6.77224C15.8395 6.77224 17.291 5.32071 17.291 3.53016C17.291 1.73961 15.8395 0.288086 14.049 0.288086C12.2584 0.288086 10.8069 1.73961 10.8069 3.53016C10.8069 5.32071 12.2584 6.77224 14.049 6.77224Z" fill="currentColor"></path>
<path d="M14.049 17.5791C15.8395 17.5791 17.291 16.1276 17.291 14.337C17.291 12.5465 15.8395 11.095 14.049 11.095C12.2584 11.095 10.8069 12.5465 10.8069 14.337C10.8069 16.1276 12.2584 17.5791 14.049 17.5791Z" fill="currentColor"></path>
<path d="M14.049 28.386C15.8395 28.386 17.291 26.9345 17.291 25.1439C17.291 23.3534 15.8395 21.9019 14.049 21.9019C12.2584 21.9019 10.8069 23.3534 10.8069 25.1439C10.8069 26.9345 12.2584 28.386 14.049 28.386Z" fill="currentColor"></path>
<path d="M14.049 39.193C15.8395 39.193 17.291 37.7415 17.291 35.9509C17.291 34.1604 15.8395 32.7089 14.049 32.7089C12.2584 32.7089 10.8069 34.1604 10.8069 35.9509C10.8069 37.7415 12.2584 39.193 14.049 39.193Z" fill="currentColor"></path>
<path d="M24.856 28.386C26.6465 28.386 28.098 26.9345 28.098 25.1439C28.098 23.3534 26.6465 21.9019 24.856 21.9019C23.0654 21.9019 21.6139 23.3534 21.6139 25.1439C21.6139 26.9345 23.0654 28.386 24.856 28.386Z" fill="currentColor"></path>
<path d="M35.6628 17.5791C37.4534 17.5791 38.9049 16.1276 38.9049 14.337C38.9049 12.5465 37.4534 11.095 35.6628 11.095C33.8723 11.095 32.4208 12.5465 32.4208 14.337C32.4208 16.1276 33.8723 17.5791 35.6628 17.5791Z" fill="currentColor"></path>
<path d="M35.6628 28.386C37.4534 28.386 38.9049 26.9345 38.9049 25.1439C38.9049 23.3534 37.4534 21.9019 35.6628 21.9019C33.8723 21.9019 32.4208 23.3534 32.4208 25.1439C32.4208 26.9345 33.8723 28.386 35.6628 28.386Z" fill="currentColor"></path>
<path d="M35.6628 39.193C37.4534 39.193 38.9049 37.7415 38.9049 35.9509C38.9049 34.1604 37.4534 32.7089 35.6628 32.7089C33.8723 32.7089 32.4208 34.1604 32.4208 35.9509C32.4208 37.7415 33.8723 39.193 35.6628 39.193Z" fill="currentColor"></path>
<path d="M35.6628 49.9999C37.4534 49.9999 38.9049 48.5484 38.9049 46.7578C38.9049 44.9673 37.4534 43.5157 35.6628 43.5157C33.8723 43.5157 32.4208 44.9673 32.4208 46.7578C32.4208 48.5484 33.8723 49.9999 35.6628 49.9999Z" fill="currentColor"></path>
<path d="M46.4697 6.77224C48.2603 6.77224 49.7118 5.32071 49.7118 3.53016C49.7118 1.73961 48.2603 0.288086 46.4697 0.288086C44.6792 0.288086 43.2277 1.73961 43.2277 3.53016C43.2277 5.32071 44.6792 6.77224 46.4697 6.77224Z" fill="currentColor"></path>
<path d="M46.4697 17.5791C48.2603 17.5791 49.7118 16.1276 49.7118 14.337C49.7118 12.5465 48.2603 11.095 46.4697 11.095C44.6792 11.095 43.2277 12.5465 43.2277 14.337C43.2277 16.1276 44.6792 17.5791 46.4697 17.5791Z" fill="currentColor"></path>
<path d="M46.4697 28.386C48.2603 28.386 49.7118 26.9345 49.7118 25.1439C49.7118 23.3534 48.2603 21.9019 46.4697 21.9019C44.6792 21.9019 43.2277 23.3534 43.2277 25.1439C43.2277 26.9345 44.6792 28.386 46.4697 28.386Z" fill="currentColor"></path>
<path d="M46.4697 39.193C48.2603 39.193 49.7118 37.7415 49.7118 35.9509C49.7118 34.1604 48.2603 32.7089 46.4697 32.7089C44.6792 32.7089 43.2277 34.1604 43.2277 35.9509C43.2277 37.7415 44.6792 39.193 46.4697 39.193Z" fill="currentColor"></path>
<path d="M46.4697 49.9999C48.2603 49.9999 49.7118 48.5484 49.7118 46.7578C49.7118 44.9673 48.2603 43.5157 46.4697 43.5157C44.6792 43.5157 43.2277 44.9673 43.2277 46.7578C43.2277 48.5484 44.6792 49.9999 46.4697 49.9999Z" fill="currentColor"></path>
</g>

</g>
                    </svg>